<?xml version="1.0" standalone="no"?>
<!DOCTYPE svg PUBLIC "-//W3C//DTD SVG 20010904//EN"
 "http://www.w3.org/TR/2001/REC-SVG-20010904/DTD/svg10.dtd">
<svg version="1.0" xmlns="http://www.w3.org/2000/svg"
 width="700.000000pt" height="700.000000pt" viewBox="0 0 700.000000 700.000000"
 preserveAspectRatio="xMidYMid meet">
<metadata>
Created by potrace 1.14, written by Peter Selinger 2001-2017
</metadata>
<g transform="translate(0.000000,700.000000) scale(0.100000,-0.100000)"
fill="#000000" stroke="none">
<path d="M3239 6346 c-2 -2 -49 -7 -104 -10 -55 -4 -111 -9 -125 -10 -66 -8
-137 -18 -160 -21 -14 -2 -45 -6 -70 -10 -181 -26 -453 -89 -671 -156 -137
-42 -368 -126 -382 -138 -4 -4 -9 -18 -12 -31 -2 -12 -11 -46 -19 -74 -26 -91
-81 -376 -72 -376 4 0 202 87 251 110 74 36 365 134 515 174 129 35 385 87
485 100 17 2 55 7 85 11 171 23 302 30 540 30 199 0 374 -8 465 -20 183 -26
321 -48 422 -70 196 -41 516 -135 528 -155 5 -7 7 -21 35 -178 20 -109 35
-241 31 -264 0 -4 -33 6 -72 23 -210 86 -592 191 -779 214 -30 4 -57 8 -60 10
-5 3 -46 8 -155 20 -228 26 -745 25 -845 0 -8 -2 -42 -6 -75 -10 -33 -3 -67
-8 -75 -10 -8 -2 -33 -6 -55 -10 -133 -19 -402 -80 -419 -95 -4 -5 -9 -21 -11
-37 -1 -15 -5 -50 -9 -78 -18 -148 -24 -413 -12 -565 41 -510 200 -988 469
-1412 27 -43 53 -78 57 -78 16 0 194 170 273 259 26 30 27 34 13 50 -9 10 -16
21 -16 25 0 4 -8 20 -19 34 -57 83 -205 405 -239 522 -40 136 -54 188 -71 266
-11 49 -22 108 -25 132 -13 90 -17 118 -22 152 -2 19 -7 119 -9 222 l-5 188
23 5 c37 8 139 24 192 30 28 3 59 8 70 10 91 18 478 25 645 12 176 -14 371
-43 500 -73 36 -9 73 -17 82 -19 262 -55 708 -242 973 -407 50 -31 91 -56 92
-55 13 14 20 518 9 622 -3 28 -8 77 -11 110 -9 105 -16 158 -27 225 -5 36 -12
78 -14 95 -6 43 -71 316 -82 345 -8 20 -29 33 -97 59 -182 69 -528 175 -635
195 -14 2 -46 9 -71 15 -106 24 -370 65 -499 76 -36 4 -76 9 -90 12 -28 5
-635 14 -641 9z"/>
<path d="M1215 5756 c-11 -7 -54 -33 -95 -57 -84 -48 -299 -188 -315 -204 -6
-5 -12 -26 -14 -45 -1 -19 -5 -43 -7 -55 -3 -11 -7 -103 -10 -205 -3 -102 -7
-193 -9 -202 -5 -28 6 -22 81 38 38 30 126 96 197 146 70 49 129 93 131 96 2
4 7 44 10 89 4 46 9 91 11 101 2 10 6 43 9 73 6 52 11 84 21 139 10 50 16 100
13 99 -2 0 -12 -6 -23 -13z"/>
<path d="M5754 5738 c6 -22 29 -164 41 -253 3 -22 8 -71 11 -110 3 -38 7 -79
8 -90 2 -13 46 -50 122 -104 65 -46 155 -112 199 -147 44 -35 83 -64 86 -64
11 0 1 259 -17 453 l-7 67 -86 59 c-114 77 -337 211 -352 211 -7 0 -9 -9 -5
-22z"/>
<path d="M1950 5227 c-424 -194 -755 -410 -1078 -706 l-84 -76 8 -55 c3 -30 8
-67 10 -82 4 -28 19 -125 29 -183 5 -25 17 -86 39 -200 17 -82 89 -349 105
-390 5 -11 21 -58 36 -105 66 -209 244 -611 345 -780 18 -30 44 -75 58 -100
13 -25 68 -110 120 -190 177 -269 368 -503 598 -735 186 -187 454 -412 482
-407 28 6 205 63 237 76 17 7 70 28 118 47 l89 34 -28 20 c-143 105 -275 206
-354 273 -166 139 -385 361 -545 553 -226 270 -471 673 -622 1024 -128 295
-258 737 -289 979 -2 21 -7 43 -10 48 -10 15 82 95 255 220 58 43 112 78 119
78 7 0 12 -13 13 -32 0 -18 2 -40 3 -48 2 -8 7 -42 11 -75 4 -33 9 -69 10 -80
4 -25 13 -84 19 -110 41 -199 48 -228 95 -390 161 -559 498 -1140 908 -1564
l118 -121 125 63 c157 79 197 102 341 198 428 285 760 657 1014 1134 l21 39
-92 92 c-51 51 -118 126 -149 168 l-57 75 -77 -152 c-221 -439 -565 -815 -974
-1066 l-65 -40 -37 42 c-143 159 -337 453 -455 686 -106 212 -231 550 -264
711 -3 14 -7 34 -10 45 -9 39 -36 165 -40 192 -18 104 -31 199 -42 318 -9 82
-11 497 -4 530 4 17 4 38 1 47 -5 14 -10 14 -51 -5z"/>
<path d="M5821 4703 c-1 -31 -3 -70 -6 -87 -2 -17 -7 -67 -10 -111 -9 -108
-48 -356 -78 -490 -118 -527 -330 -1022 -630 -1469 -54 -81 -211 -294 -226
-306 -3 -3 -24 -27 -46 -55 -95 -118 -247 -277 -388 -406 l-118 -107 -77 28
c-88 32 -235 95 -305 131 l-48 25 103 86 c200 167 368 332 499 489 33 41 70
84 80 97 119 141 312 441 424 662 141 279 283 671 321 890 3 14 7 32 10 42 3
12 -24 36 -105 92 -60 42 -111 76 -114 76 -3 0 -35 18 -72 40 -100 62 -285
151 -430 208 -118 46 -368 123 -441 135 -16 3 -63 12 -104 20 -90 19 -222 36
-339 44 -108 8 -420 8 -453 0 -24 -6 -25 -9 -17 -59 5 -29 12 -73 15 -98 3
-25 15 -88 28 -140 l22 -95 139 -1 c126 0 322 -11 365 -19 9 -2 40 -6 68 -10
42 -5 230 -43 295 -59 65 -17 207 -64 292 -98 105 -41 327 -149 364 -177 l21
-16 -44 -130 c-24 -72 -58 -164 -75 -205 -18 -41 -39 -92 -47 -112 -30 -70
-161 -314 -225 -416 -299 -480 -767 -925 -1244 -1182 -128 -70 -124 -60 -49
-115 69 -50 224 -155 230 -155 2 0 27 -15 56 -34 149 -94 415 -224 613 -298
111 -42 287 -98 307 -98 19 0 143 99 288 229 140 125 319 309 430 441 30 36
57 67 60 70 12 12 88 109 129 164 390 530 656 1090 800 1687 44 181 43 175 72
344 26 154 26 159 34 230 l6 60 -89 83 c-93 86 -271 232 -282 232 -4 0 -8 -25
-9 -57z"/>
<path d="M3409 1079 c-76 -37 -305 -136 -353 -153 -17 -6 -10 -13 40 -43 91
-56 381 -203 399 -203 35 0 461 229 448 240 -5 4 -51 24 -103 45 -52 21 -151
64 -219 96 -68 33 -124 59 -125 59 -1 0 -40 -18 -87 -41z"/>
</g>
</svg>
