<svg xmlns="http://www.w3.org/2000/svg" xmlns:xlink="http://www.w3.org/1999/xlink" width="260" zoomAndPan="magnify" viewBox="0 0 194.87999 195.000001" height="260" preserveAspectRatio="xMidYMid meet" version="1.0"><defs><clipPath id="45765f7855"><path d="M 21.214844 18.046875 L 173.433594 18.046875 L 173.433594 176.238281 L 21.214844 176.238281 Z M 21.214844 18.046875 " clip-rule="nonzero"/></clipPath><clipPath id="b1c8c5905b"><path d="M 32.671875 48.386719 C 33.023438 43.589844 33.65625 38.871094 34.554688 34.246094 C 30.242188 36.628906 26.078125 39.253906 22.082031 42.09375 C 21.523438 46.933594 21.230469 51.855469 21.214844 56.839844 C 24.855469 53.800781 28.683594 50.980469 32.671875 48.386719 Z M 96.738281 29.273438 L 97.910156 29.273438 C 101.886719 29.292969 105.816406 29.507812 109.691406 29.910156 L 110.921875 30.042969 C 115.339844 30.546875 119.683594 31.292969 123.941406 32.269531 C 128.347656 33.277344 132.664062 34.535156 136.871094 36.019531 C 137.800781 40.167969 138.460938 44.414062 138.839844 48.746094 C 134.914062 47.101562 130.867188 45.683594 126.722656 44.511719 C 122.734375 43.382812 118.65625 42.480469 114.5 41.8125 C 111.183594 41.28125 107.8125 40.898438 104.40625 40.679688 C 103.707031 40.632812 103.007812 40.59375 102.304688 40.5625 C 100.652344 40.488281 98.992188 40.449219 97.324219 40.449219 C 95.65625 40.449219 93.992188 40.488281 92.34375 40.5625 C 88.214844 40.75 84.144531 41.171875 80.148438 41.8125 C 75.988281 42.480469 71.910156 43.382812 67.925781 44.511719 C 67.339844 48.421875 67.019531 52.421875 66.984375 56.488281 C 66.980469 56.742188 66.976562 57 66.976562 57.257812 C 66.976562 60.925781 67.210938 64.539062 67.660156 68.085938 C 68.144531 71.878906 68.875 75.597656 69.839844 79.21875 C 72.347656 88.625 76.421875 97.390625 81.773438 105.207031 C 84.824219 102.730469 87.632812 99.964844 90.160156 96.953125 C 86.019531 90.523438 82.855469 83.402344 80.878906 75.800781 C 79.953125 72.226562 79.285156 68.550781 78.902344 64.789062 C 78.652344 62.3125 78.519531 59.800781 78.519531 57.257812 C 78.519531 55.972656 78.554688 54.699219 78.621094 53.433594 C 82.4375 52.6875 86.332031 52.160156 90.292969 51.878906 C 92.617188 51.710938 94.960938 51.625 97.324219 51.625 C 98.859375 51.625 100.386719 51.660156 101.910156 51.730469 C 102.726562 51.769531 103.539062 51.816406 104.351562 51.878906 C 108.3125 52.160156 112.210938 52.6875 116.027344 53.433594 C 120 54.214844 123.882812 55.238281 127.664062 56.488281 C 131.605469 57.789062 135.4375 59.339844 139.136719 61.117188 C 143 62.976562 146.722656 65.085938 150.285156 67.421875 C 150.59375 64.074219 150.753906 60.6875 150.753906 57.257812 C 150.753906 56.367188 150.742188 55.480469 150.722656 54.597656 C 150.613281 50.113281 150.230469 45.699219 149.597656 41.367188 C 148.917969 36.75 147.945312 32.226562 146.703125 27.816406 C 142.25 25.988281 137.671875 24.394531 132.988281 23.058594 C 128.4375 21.761719 123.789062 20.707031 119.054688 19.910156 C 118.832031 19.871094 118.605469 19.832031 118.382812 19.796875 C 113.980469 19.078125 109.507812 18.582031 104.96875 18.320312 C 104.613281 18.296875 104.261719 18.28125 103.90625 18.261719 C 101.726562 18.152344 99.53125 18.097656 97.324219 18.097656 C 95.117188 18.097656 92.921875 18.152344 90.742188 18.261719 C 90.386719 18.28125 90.03125 18.296875 89.679688 18.320312 C 84.910156 18.59375 80.210938 19.132812 75.59375 19.910156 C 70.855469 20.707031 66.207031 21.761719 61.65625 23.058594 C 56.972656 24.394531 52.394531 25.988281 47.941406 27.816406 C 46.699219 32.226562 45.730469 36.75 45.050781 41.367188 C 49.167969 39.347656 53.410156 37.558594 57.777344 36.019531 C 61.984375 34.535156 66.300781 33.277344 70.707031 32.269531 C 74.964844 31.292969 79.308594 30.546875 83.726562 30.042969 C 88 29.558594 92.34375 29.296875 96.738281 29.273438 Z M 161.972656 48.386719 C 165.964844 50.980469 169.789062 53.804688 173.433594 56.839844 C 173.417969 51.855469 173.125 46.933594 172.566406 42.09375 C 168.570312 39.253906 164.40625 36.628906 160.089844 34.246094 C 160.988281 38.867188 161.625 43.589844 161.972656 48.386719 Z M 170.472656 85.09375 C 171.457031 80.546875 172.203125 75.910156 172.703125 71.203125 C 169.398438 67.972656 165.890625 64.953125 162.199219 62.167969 C 162.015625 66.679688 161.585938 71.125 160.917969 75.496094 C 160.253906 79.839844 159.359375 84.109375 158.242188 88.285156 C 157.132812 92.441406 155.808594 96.503906 154.273438 100.46875 C 153.375 102.792969 152.40625 105.085938 151.367188 107.335938 C 149.582031 111.214844 147.597656 114.980469 145.421875 118.621094 C 143.21875 122.3125 140.820312 125.875 138.246094 129.292969 C 135.625 132.773438 132.816406 136.101562 129.839844 139.265625 C 126.804688 142.496094 123.59375 145.558594 120.21875 148.433594 C 116.0625 146.996094 112.035156 145.28125 108.15625 143.308594 C 111.519531 140.746094 114.730469 137.988281 117.765625 135.050781 C 120.734375 132.1875 123.535156 129.148438 126.160156 125.960938 C 128.726562 122.839844 131.125 119.574219 133.332031 116.175781 C 138.292969 108.546875 142.316406 100.25 145.242188 91.453125 C 146.515625 87.636719 147.578125 83.726562 148.417969 79.734375 C 145.097656 77.261719 141.59375 75.019531 137.929688 73.039062 C 134.421875 71.144531 130.765625 69.484375 126.984375 68.085938 C 123.347656 66.738281 119.59375 65.636719 115.742188 64.789062 C 112.019531 63.972656 108.203125 63.394531 104.3125 63.082031 C 102.007812 62.894531 99.675781 62.800781 97.324219 62.800781 C 94.972656 62.800781 92.640625 62.894531 90.335938 63.082031 C 90.691406 66.878906 91.386719 70.570312 92.394531 74.136719 C 94.023438 74.027344 95.667969 73.976562 97.324219 73.976562 C 98.980469 73.976562 100.625 74.027344 102.253906 74.136719 C 106.179688 74.390625 110.027344 74.957031 113.765625 75.800781 C 117.566406 76.65625 121.253906 77.804688 124.808594 79.21875 C 128.472656 80.671875 131.992188 82.414062 135.347656 84.410156 C 132.480469 94.21875 128.105469 103.378906 122.488281 111.621094 C 120.285156 114.851562 117.890625 117.941406 115.320312 120.875 C 112.699219 123.867188 109.898438 126.695312 106.929688 129.339844 C 103.894531 132.046875 100.683594 134.5625 97.324219 136.871094 C 93.867188 139.246094 90.253906 141.398438 86.492188 143.308594 C 89.945312 145.941406 93.5625 148.367188 97.324219 150.574219 C 101.195312 152.839844 105.222656 154.875 109.382812 156.652344 C 113.523438 158.425781 117.800781 159.941406 122.191406 161.1875 C 125.972656 158.28125 129.597656 155.175781 133.039062 151.882812 C 136.429688 148.640625 139.644531 145.214844 142.667969 141.625 C 145.664062 138.074219 148.46875 134.359375 151.078125 130.5 C 153.671875 126.65625 156.066406 122.671875 158.25 118.554688 C 159.523438 116.152344 160.722656 113.707031 161.847656 111.21875 C 162.667969 109.402344 163.449219 107.570312 164.1875 105.710938 C 165.140625 103.320312 166.023438 100.898438 166.832031 98.441406 C 168.273438 94.089844 169.492188 89.632812 170.472656 85.09375 Z M 43.925781 54.597656 C 39.933594 56.878906 36.101562 59.410156 32.449219 62.167969 C 28.757812 64.953125 25.25 67.972656 21.945312 71.199219 C 22.441406 75.910156 23.191406 80.546875 24.171875 85.09375 C 25.15625 89.632812 26.371094 94.089844 27.8125 98.441406 C 29.257812 102.808594 30.921875 107.070312 32.800781 111.21875 C 33.925781 113.707031 35.125 116.152344 36.398438 118.554688 C 38.578125 122.671875 40.976562 126.65625 43.570312 130.5 C 46.175781 134.359375 48.984375 138.074219 51.976562 141.625 C 55.003906 145.214844 58.21875 148.640625 61.609375 151.882812 C 65.050781 155.175781 68.671875 158.28125 72.457031 161.1875 C 76.84375 159.941406 81.121094 158.425781 85.261719 156.652344 C 81.492188 154.117188 77.875 151.371094 74.425781 148.433594 C 71.050781 145.558594 67.839844 142.496094 64.804688 139.265625 C 61.828125 136.101562 59.023438 132.773438 56.402344 129.292969 C 53.824219 125.875 51.429688 122.3125 49.222656 118.621094 C 45.785156 112.863281 42.816406 106.796875 40.371094 100.46875 C 38.839844 96.503906 37.515625 92.441406 36.402344 88.285156 C 35.289062 84.109375 34.390625 79.839844 33.730469 75.496094 C 37.078125 72.570312 40.632812 69.867188 44.363281 67.421875 C 44.75 71.597656 45.378906 75.707031 46.230469 79.734375 C 47.070312 83.726562 48.132812 87.636719 49.402344 91.453125 C 52.328125 100.25 56.351562 108.546875 61.3125 116.175781 C 63.523438 119.574219 65.917969 122.839844 68.484375 125.960938 C 71.109375 129.148438 73.914062 132.183594 76.878906 135.050781 C 80.640625 133.40625 84.261719 131.496094 87.714844 129.339844 C 91.085938 127.238281 94.292969 124.902344 97.324219 122.363281 C 100.296875 119.867188 103.101562 117.167969 105.710938 114.285156 C 108.296875 111.433594 110.691406 108.398438 112.871094 105.207031 C 115.074219 101.988281 117.0625 98.613281 118.8125 95.09375 C 115.640625 92.332031 112.816406 89.171875 110.421875 85.691406 C 108.765625 89.632812 106.773438 93.398438 104.488281 96.953125 C 102.351562 100.273438 99.949219 103.40625 97.324219 106.328125 C 94.742188 109.195312 91.9375 111.859375 88.9375 114.285156 C 85.921875 116.726562 82.707031 118.933594 79.328125 120.875 C 76.757812 117.941406 74.363281 114.851562 72.160156 111.621094 C 66.542969 103.378906 62.164062 94.21875 59.300781 84.410156 C 58.21875 80.707031 57.355469 76.910156 56.71875 73.039062 C 56.078125 69.140625 55.667969 65.160156 55.511719 61.117188 C 55.460938 59.835938 55.433594 58.550781 55.433594 57.257812 C 55.433594 54.390625 55.5625 51.550781 55.804688 48.746094 C 51.710938 50.457031 47.746094 52.414062 43.925781 54.597656 Z M 97.324219 163.769531 C 93.191406 165.890625 88.917969 167.777344 84.523438 169.414062 C 88.648438 171.898438 92.917969 174.164062 97.324219 176.1875 C 101.726562 174.164062 106 171.898438 110.125 169.414062 C 105.730469 167.777344 101.457031 165.890625 97.324219 163.769531 Z M 97.324219 163.769531 " clip-rule="evenodd"/></clipPath><linearGradient x1="101.668" gradientTransform="matrix(0.764991, 0, 0, 0.767577, 21.213691, 18.098846)" y1="207.975039" x2="97.314993" gradientUnits="userSpaceOnUse" y2="-2.017434" id="2615214896"><stop stop-opacity="1" stop-color="rgb(15.699768%, 8.599854%, 43.499756%)" offset="0"/><stop stop-opacity="1" stop-color="rgb(15.637207%, 8.790588%, 43.667603%)" offset="0.0078125"/><stop stop-opacity="1" stop-color="rgb(15.515137%, 9.172058%, 44.004822%)" offset="0.015625"/><stop stop-opacity="1" stop-color="rgb(15.393066%, 9.555054%, 44.342041%)" offset="0.019634"/><stop stop-opacity="1" stop-color="rgb(15.332031%, 9.747314%, 44.511414%)" offset="0.0234375"/><stop stop-opacity="1" stop-color="rgb(15.26947%, 9.938049%, 44.67926%)" offset="0.03125"/><stop stop-opacity="1" stop-color="rgb(15.1474%, 10.321045%, 45.018005%)" offset="0.0390625"/><stop stop-opacity="1" stop-color="rgb(15.023804%, 10.704041%, 45.355225%)" offset="0.046875"/><stop stop-opacity="1" stop-color="rgb(14.901733%, 11.087036%, 45.692444%)" offset="0.0546875"/><stop stop-opacity="1" stop-color="rgb(14.779663%, 11.470032%, 46.029663%)" offset="0.0625"/><stop stop-opacity="1" stop-color="rgb(14.656067%, 11.853027%, 46.366882%)" offset="0.0703125"/><stop stop-opacity="1" stop-color="rgb(14.533997%, 12.236023%, 46.705627%)" offset="0.078125"/><stop stop-opacity="1" stop-color="rgb(14.4104%, 12.617493%, 47.042847%)" offset="0.0859375"/><stop stop-opacity="1" stop-color="rgb(14.28833%, 13.000488%, 47.380066%)" offset="0.09375"/><stop stop-opacity="1" stop-color="rgb(14.16626%, 13.383484%, 47.717285%)" offset="0.101562"/><stop stop-opacity="1" stop-color="rgb(14.042664%, 13.766479%, 48.054504%)" offset="0.109375"/><stop stop-opacity="1" stop-color="rgb(13.920593%, 14.149475%, 48.391724%)" offset="0.117188"/><stop stop-opacity="1" stop-color="rgb(13.798523%, 14.532471%, 48.730469%)" offset="0.125"/><stop stop-opacity="1" stop-color="rgb(13.674927%, 14.915466%, 49.067688%)" offset="0.132812"/><stop stop-opacity="1" stop-color="rgb(13.552856%, 15.298462%, 49.404907%)" offset="0.140625"/><stop stop-opacity="1" stop-color="rgb(13.42926%, 15.679932%, 49.742126%)" offset="0.148438"/><stop stop-opacity="1" stop-color="rgb(13.30719%, 16.062927%, 50.079346%)" offset="0.15625"/><stop stop-opacity="1" stop-color="rgb(13.18512%, 16.445923%, 50.418091%)" offset="0.164062"/><stop stop-opacity="1" stop-color="rgb(13.061523%, 16.828918%, 50.75531%)" offset="0.171875"/><stop stop-opacity="1" stop-color="rgb(12.939453%, 17.211914%, 51.092529%)" offset="0.179688"/><stop stop-opacity="1" stop-color="rgb(12.815857%, 17.59491%, 51.429749%)" offset="0.1875"/><stop stop-opacity="1" stop-color="rgb(12.693787%, 17.977905%, 51.766968%)" offset="0.195312"/><stop stop-opacity="1" stop-color="rgb(12.571716%, 18.360901%, 52.104187%)" offset="0.203125"/><stop stop-opacity="1" stop-color="rgb(12.44812%, 18.742371%, 52.442932%)" offset="0.210938"/><stop stop-opacity="1" stop-color="rgb(12.32605%, 19.125366%, 52.780151%)" offset="0.21875"/><stop stop-opacity="1" stop-color="rgb(12.203979%, 19.508362%, 53.117371%)" offset="0.226562"/><stop stop-opacity="1" stop-color="rgb(12.080383%, 19.891357%, 53.45459%)" offset="0.234375"/><stop stop-opacity="1" stop-color="rgb(11.958313%, 20.274353%, 53.791809%)" offset="0.242188"/><stop stop-opacity="1" stop-color="rgb(11.834717%, 20.657349%, 54.130554%)" offset="0.25"/><stop stop-opacity="1" stop-color="rgb(11.712646%, 21.040344%, 54.467773%)" offset="0.257812"/><stop stop-opacity="1" stop-color="rgb(11.590576%, 21.42334%, 54.804993%)" offset="0.265625"/><stop stop-opacity="1" stop-color="rgb(11.46698%, 21.806335%, 55.142212%)" offset="0.273437"/><stop stop-opacity="1" stop-color="rgb(11.34491%, 22.187805%, 55.479431%)" offset="0.28125"/><stop stop-opacity="1" stop-color="rgb(11.221313%, 22.570801%, 55.81665%)" offset="0.289063"/><stop stop-opacity="1" stop-color="rgb(11.099243%, 22.953796%, 56.155396%)" offset="0.296875"/><stop stop-opacity="1" stop-color="rgb(10.977173%, 23.336792%, 56.492615%)" offset="0.304688"/><stop stop-opacity="1" stop-color="rgb(10.853577%, 23.719788%, 56.829834%)" offset="0.3125"/><stop stop-opacity="1" stop-color="rgb(10.731506%, 24.102783%, 57.167053%)" offset="0.320312"/><stop stop-opacity="1" stop-color="rgb(10.609436%, 24.485779%, 57.504272%)" offset="0.328125"/><stop stop-opacity="1" stop-color="rgb(10.48584%, 24.868774%, 57.843018%)" offset="0.335937"/><stop stop-opacity="1" stop-color="rgb(10.36377%, 25.250244%, 58.180237%)" offset="0.34375"/><stop stop-opacity="1" stop-color="rgb(10.240173%, 25.63324%, 58.517456%)" offset="0.351562"/><stop stop-opacity="1" stop-color="rgb(10.118103%, 26.016235%, 58.854675%)" offset="0.359375"/><stop stop-opacity="1" stop-color="rgb(9.996033%, 26.399231%, 59.191895%)" offset="0.367188"/><stop stop-opacity="1" stop-color="rgb(9.872437%, 26.782227%, 59.53064%)" offset="0.375"/><stop stop-opacity="1" stop-color="rgb(9.750366%, 27.165222%, 59.867859%)" offset="0.382812"/><stop stop-opacity="1" stop-color="rgb(9.62677%, 27.548218%, 60.205078%)" offset="0.390625"/><stop stop-opacity="1" stop-color="rgb(9.5047%, 27.931213%, 60.542297%)" offset="0.398437"/><stop stop-opacity="1" stop-color="rgb(9.382629%, 28.312683%, 60.879517%)" offset="0.40625"/><stop stop-opacity="1" stop-color="rgb(9.259033%, 28.695679%, 61.216736%)" offset="0.414062"/><stop stop-opacity="1" stop-color="rgb(9.136963%, 29.078674%, 61.555481%)" offset="0.421875"/><stop stop-opacity="1" stop-color="rgb(9.014893%, 29.46167%, 61.8927%)" offset="0.429688"/><stop stop-opacity="1" stop-color="rgb(8.891296%, 29.844666%, 62.229919%)" offset="0.4375"/><stop stop-opacity="1" stop-color="rgb(8.769226%, 30.227661%, 62.567139%)" offset="0.445312"/><stop stop-opacity="1" stop-color="rgb(8.64563%, 30.610657%, 62.904358%)" offset="0.453125"/><stop stop-opacity="1" stop-color="rgb(8.52356%, 30.993652%, 63.243103%)" offset="0.460937"/><stop stop-opacity="1" stop-color="rgb(8.401489%, 31.376648%, 63.580322%)" offset="0.46875"/><stop stop-opacity="1" stop-color="rgb(8.277893%, 31.758118%, 63.917542%)" offset="0.476562"/><stop stop-opacity="1" stop-color="rgb(8.155823%, 32.141113%, 64.254761%)" offset="0.484375"/><stop stop-opacity="1" stop-color="rgb(8.032227%, 32.524109%, 64.59198%)" offset="0.492187"/><stop stop-opacity="1" stop-color="rgb(7.910156%, 32.907104%, 64.929199%)" offset="0.5"/><stop stop-opacity="1" stop-color="rgb(7.788086%, 33.2901%, 65.267944%)" offset="0.507812"/><stop stop-opacity="1" stop-color="rgb(7.66449%, 33.673096%, 65.605164%)" offset="0.515625"/><stop stop-opacity="1" stop-color="rgb(7.542419%, 34.056091%, 65.942383%)" offset="0.523438"/><stop stop-opacity="1" stop-color="rgb(7.420349%, 34.439087%, 66.279602%)" offset="0.53125"/><stop stop-opacity="1" stop-color="rgb(7.296753%, 34.820557%, 66.616821%)" offset="0.539062"/><stop stop-opacity="1" stop-color="rgb(7.174683%, 35.203552%, 66.955566%)" offset="0.546875"/><stop stop-opacity="1" stop-color="rgb(7.051086%, 35.586548%, 67.292786%)" offset="0.554687"/><stop stop-opacity="1" stop-color="rgb(6.929016%, 35.969543%, 67.630005%)" offset="0.5625"/><stop stop-opacity="1" stop-color="rgb(6.806946%, 36.352539%, 67.967224%)" offset="0.570312"/><stop stop-opacity="1" stop-color="rgb(6.68335%, 36.735535%, 68.304443%)" offset="0.578125"/><stop stop-opacity="1" stop-color="rgb(6.561279%, 37.11853%, 68.641663%)" offset="0.585937"/><stop stop-opacity="1" stop-color="rgb(6.437683%, 37.501526%, 68.980408%)" offset="0.59375"/><stop stop-opacity="1" stop-color="rgb(6.315613%, 37.884521%, 69.317627%)" offset="0.601562"/><stop stop-opacity="1" stop-color="rgb(6.193542%, 38.265991%, 69.654846%)" offset="0.609375"/><stop stop-opacity="1" stop-color="rgb(6.069946%, 38.648987%, 69.992065%)" offset="0.617188"/><stop stop-opacity="1" stop-color="rgb(5.947876%, 39.031982%, 70.329285%)" offset="0.625"/><stop stop-opacity="1" stop-color="rgb(5.825806%, 39.414978%, 70.66803%)" offset="0.632812"/><stop stop-opacity="1" stop-color="rgb(5.702209%, 39.797974%, 71.005249%)" offset="0.640625"/><stop stop-opacity="1" stop-color="rgb(5.580139%, 40.180969%, 71.342468%)" offset="0.648437"/><stop stop-opacity="1" stop-color="rgb(5.456543%, 40.563965%, 71.679688%)" offset="0.65625"/><stop stop-opacity="1" stop-color="rgb(5.334473%, 40.94696%, 72.016907%)" offset="0.664062"/><stop stop-opacity="1" stop-color="rgb(5.212402%, 41.32843%, 72.355652%)" offset="0.671875"/><stop stop-opacity="1" stop-color="rgb(5.088806%, 41.711426%, 72.692871%)" offset="0.679687"/><stop stop-opacity="1" stop-color="rgb(4.966736%, 42.094421%, 73.03009%)" offset="0.6875"/><stop stop-opacity="1" stop-color="rgb(4.84314%, 42.477417%, 73.36731%)" offset="0.695312"/><stop stop-opacity="1" stop-color="rgb(4.721069%, 42.860413%, 73.704529%)" offset="0.703125"/><stop stop-opacity="1" stop-color="rgb(4.598999%, 43.243408%, 74.041748%)" offset="0.710938"/><stop stop-opacity="1" stop-color="rgb(4.475403%, 43.626404%, 74.380493%)" offset="0.71875"/><stop stop-opacity="1" stop-color="rgb(4.353333%, 44.009399%, 74.717712%)" offset="0.726562"/><stop stop-opacity="1" stop-color="rgb(4.231262%, 44.390869%, 75.054932%)" offset="0.734375"/><stop stop-opacity="1" stop-color="rgb(4.107666%, 44.773865%, 75.392151%)" offset="0.742188"/><stop stop-opacity="1" stop-color="rgb(3.985596%, 45.15686%, 75.72937%)" offset="0.75"/><stop stop-opacity="1" stop-color="rgb(3.862%, 45.539856%, 76.068115%)" offset="0.757812"/><stop stop-opacity="1" stop-color="rgb(3.739929%, 45.922852%, 76.405334%)" offset="0.765625"/><stop stop-opacity="1" stop-color="rgb(3.617859%, 46.305847%, 76.742554%)" offset="0.773437"/><stop stop-opacity="1" stop-color="rgb(3.494263%, 46.688843%, 77.079773%)" offset="0.78125"/><stop stop-opacity="1" stop-color="rgb(3.372192%, 47.071838%, 77.416992%)" offset="0.789062"/><stop stop-opacity="1" stop-color="rgb(3.248596%, 47.454834%, 77.754211%)" offset="0.796875"/><stop stop-opacity="1" stop-color="rgb(3.126526%, 47.836304%, 78.092957%)" offset="0.804687"/><stop stop-opacity="1" stop-color="rgb(3.004456%, 48.219299%, 78.430176%)" offset="0.8125"/><stop stop-opacity="1" stop-color="rgb(2.880859%, 48.602295%, 78.767395%)" offset="0.820312"/><stop stop-opacity="1" stop-color="rgb(2.758789%, 48.985291%, 79.104614%)" offset="0.828125"/><stop stop-opacity="1" stop-color="rgb(2.636719%, 49.368286%, 79.441833%)" offset="0.835938"/><stop stop-opacity="1" stop-color="rgb(2.513123%, 49.751282%, 79.780579%)" offset="0.84375"/><stop stop-opacity="1" stop-color="rgb(2.391052%, 50.134277%, 80.117798%)" offset="0.851562"/><stop stop-opacity="1" stop-color="rgb(2.267456%, 50.517273%, 80.455017%)" offset="0.859375"/><stop stop-opacity="1" stop-color="rgb(2.145386%, 50.898743%, 80.792236%)" offset="0.867187"/><stop stop-opacity="1" stop-color="rgb(2.023315%, 51.281738%, 81.129456%)" offset="0.875"/><stop stop-opacity="1" stop-color="rgb(1.899719%, 51.664734%, 81.468201%)" offset="0.882812"/><stop stop-opacity="1" stop-color="rgb(1.777649%, 52.047729%, 81.80542%)" offset="0.890625"/><stop stop-opacity="1" stop-color="rgb(1.654053%, 52.430725%, 82.142639%)" offset="0.898437"/><stop stop-opacity="1" stop-color="rgb(1.531982%, 52.813721%, 82.479858%)" offset="0.90625"/><stop stop-opacity="1" stop-color="rgb(1.409912%, 53.196716%, 82.817078%)" offset="0.914062"/><stop stop-opacity="1" stop-color="rgb(1.286316%, 53.579712%, 83.154297%)" offset="0.921875"/><stop stop-opacity="1" stop-color="rgb(1.164246%, 53.961182%, 83.493042%)" offset="0.929687"/><stop stop-opacity="1" stop-color="rgb(1.042175%, 54.344177%, 83.830261%)" offset="0.9375"/><stop stop-opacity="1" stop-color="rgb(0.918579%, 54.727173%, 84.16748%)" offset="0.945312"/><stop stop-opacity="1" stop-color="rgb(0.796509%, 55.110168%, 84.5047%)" offset="0.953125"/><stop stop-opacity="1" stop-color="rgb(0.672913%, 55.493164%, 84.841919%)" offset="0.960938"/><stop stop-opacity="1" stop-color="rgb(0.550842%, 55.87616%, 85.180664%)" offset="0.96875"/><stop stop-opacity="1" stop-color="rgb(0.428772%, 56.259155%, 85.517883%)" offset="0.976562"/><stop stop-opacity="1" stop-color="rgb(0.305176%, 56.642151%, 85.855103%)" offset="0.980366"/><stop stop-opacity="1" stop-color="rgb(0.244141%, 56.834412%, 86.024475%)" offset="0.984375"/><stop stop-opacity="1" stop-color="rgb(0.183105%, 57.025146%, 86.192322%)" offset="0.992187"/><stop stop-opacity="1" stop-color="rgb(0.0610352%, 57.406616%, 86.529541%)" offset="1"/></linearGradient></defs><g clip-path="url(#45765f7855)"><g clip-path="url(#b1c8c5905b)"><path fill="url(#2615214896)" d="M 21.214844 18.097656 L 21.214844 176.1875 L 173.433594 176.1875 L 173.433594 18.097656 Z M 21.214844 18.097656 " fill-rule="nonzero"/></g></g></svg>